<svg width="3036" height="973" xmlns="http://www.w3.org/2000/svg" xmlns:xlink="http://www.w3.org/1999/xlink" xml:space="preserve" overflow="hidden"><defs><clipPath id="clip0"><rect x="373" y="428" width="3036" height="973"/></clipPath></defs><g clip-path="url(#clip0)" transform="translate(-373 -428)"><path d="M373 637.835C373 600.923 402.923 571 439.834 571L989.166 571C1026.08 571 1056 600.923 1056 637.835L1056 905.166C1056 942.077 1026.08 972 989.166 972L439.834 972C402.923 972 373 942.077 373 905.166Z" fill="#B6C0C6" fill-rule="evenodd"/><text font-family="MetaPlusLF,MetaPlusLF_MSFontService,sans-serif" font-weight="400" font-size="50" transform="matrix(1 0 0 1 426.043 639)">Main</text><text font-family="MetaPlusLF,MetaPlusLF_MSFontService,sans-serif" font-weight="400" font-size="50" transform="matrix(1 0 0 1 542.918 639)">Component</text><text font-family="MetaPlusLF,MetaPlusLF_MSFontService,sans-serif" font-weight="400" font-size="50" transform="matrix(1 0 0 1 426.043 700)">Components: {</text><text font-family="MetaPlusLF,MetaPlusLF_MSFontService,sans-serif" font-weight="400" font-size="50" transform="matrix(1 0 0 1 426.043 942)">}</text><path d="M558.5 745C558.5 736.44 565.44 729.5 574 729.5L1010 729.5C1018.56 729.5 1025.5 736.44 1025.5 745L1025.5 807C1025.5 815.56 1018.56 822.5 1010 822.5L574 822.5C565.44 822.5 558.5 815.56 558.5 807Z" stroke="#000000" stroke-width="9.16667" stroke-linejoin="round" stroke-miterlimit="10" fill="#8BD7FF" fill-rule="evenodd"/><text font-family="MetaPlusLF,MetaPlusLF_MSFontService,sans-serif" font-weight="400" font-size="50" transform="matrix(1 0 0 1 650.428 794)">Component 1</text><path d="M558.5 839.167C558.5 830.514 565.514 823.5 574.167 823.5L1009.83 823.5C1018.49 823.5 1025.5 830.514 1025.5 839.167L1025.5 901.834C1025.5 910.486 1018.49 917.5 1009.83 917.5L574.167 917.5C565.514 917.5 558.5 910.486 558.5 901.834Z" stroke="#000000" stroke-width="9.16667" stroke-linejoin="round" stroke-miterlimit="10" fill="#8BD7FF" fill-rule="evenodd"/><text font-family="MetaPlusLF,MetaPlusLF_MSFontService,sans-serif" font-weight="400" font-size="50" transform="matrix(1 0 0 1 650.428 889)">Component 2</text><path d="M1100 634.834C1100 597.923 1129.92 568 1166.83 568L1716.17 568C1753.08 568 1783 597.923 1783 634.834L1783 902.165C1783 939.077 1753.08 969 1716.17 969L1166.83 969C1129.92 969 1100 939.077 1100 902.165Z" fill="#B6C0C6" fill-rule="evenodd"/><text font-family="MetaPlusLF,MetaPlusLF_MSFontService,sans-serif" font-weight="400" font-size="50" transform="matrix(1 0 0 1 1152.59 636)">Component 1</text><text font-family="MetaPlusLF,MetaPlusLF_MSFontService,sans-serif" font-weight="400" font-size="50" transform="matrix(1 0 0 1 1152.59 697)">Components: {</text><text font-family="MetaPlusLF,MetaPlusLF_MSFontService,sans-serif" font-weight="400" font-size="50" transform="matrix(1 0 0 1 1152.59 939)">}</text><path d="M1285.5 742.167C1285.5 733.514 1292.51 726.5 1301.17 726.5L1735.83 726.5C1744.49 726.5 1751.5 733.514 1751.5 742.167L1751.5 804.833C1751.5 813.485 1744.49 820.5 1735.83 820.5L1301.17 820.5C1292.51 820.5 1285.5 813.485 1285.5 804.833Z" stroke="#000000" stroke-width="9.16667" stroke-linejoin="round" stroke-miterlimit="10" fill="#C5EBFF" fill-rule="evenodd"/><text font-family="MetaPlusLF,MetaPlusLF_MSFontService,sans-serif" font-weight="400" font-size="50" transform="matrix(1 0 0 1 1329.42 791)">Sub Component</text><text font-family="MetaPlusLF,MetaPlusLF_MSFontService,sans-serif" font-weight="400" font-size="50" transform="matrix(1 0 0 1 1680.05 791)">1</text><path d="M1285.5 836.167C1285.5 827.514 1292.51 820.5 1301.17 820.5L1735.83 820.5C1744.49 820.5 1751.5 827.514 1751.5 836.167L1751.5 898.833C1751.5 907.486 1744.49 914.5 1735.83 914.5L1301.17 914.5C1292.51 914.5 1285.5 907.486 1285.5 898.833Z" stroke="#000000" stroke-width="9.16667" stroke-linejoin="round" stroke-miterlimit="10" fill="#C5EBFF" fill-rule="evenodd"/><text font-family="MetaPlusLF,MetaPlusLF_MSFontService,sans-serif" font-weight="400" font-size="50" transform="matrix(1 0 0 1 1329.42 886)">Sub Component</text><text font-family="MetaPlusLF,MetaPlusLF_MSFontService,sans-serif" font-weight="400" font-size="50" transform="matrix(1 0 0 1 1680.05 886)">2</text><path d="M1817 667.169C1817 609.086 1864.09 562 1922.17 562L2394.83 562C2452.91 562 2500 609.086 2500 667.169L2500 1087.83C2500 1145.91 2452.91 1193 2394.83 1193L1922.17 1193C1864.09 1193 1817 1145.91 1817 1087.83Z" fill="#B6C0C6" fill-rule="evenodd"/><text font-family="MetaPlusLF,MetaPlusLF_MSFontService,sans-serif" font-weight="400" font-size="50" transform="matrix(1 0 0 1 1881.2 624)">Main</text><text font-family="MetaPlusLF,MetaPlusLF_MSFontService,sans-serif" font-weight="400" font-size="50" transform="matrix(1 0 0 1 1998.08 624)">Component</text><text font-family="MetaPlusLF,MetaPlusLF_MSFontService,sans-serif" font-weight="400" font-size="50" transform="matrix(1 0 0 1 1881.2 685)">Components: {</text><text font-family="MetaPlusLF,MetaPlusLF_MSFontService,sans-serif" font-weight="400" font-size="50" transform="matrix(1 0 0 1 1881.2 1169)">}</text><path d="M2002.5 736.167C2002.5 727.514 2009.51 720.5 2018.17 720.5L2453.83 720.5C2462.49 720.5 2469.5 727.514 2469.5 736.167L2469.5 798.834C2469.5 807.486 2462.49 814.5 2453.83 814.5L2018.17 814.5C2009.51 814.5 2002.5 807.486 2002.5 798.834Z" stroke="#000000" stroke-width="9.16667" stroke-linejoin="round" stroke-miterlimit="10" fill="#8BD7FF" fill-rule="evenodd"/><text font-family="MetaPlusLF,MetaPlusLF_MSFontService,sans-serif" font-weight="400" font-size="50" transform="matrix(1 0 0 1 2094.34 785)">Component 1</text><path d="M2002.5 831C2002.5 822.44 2009.44 815.5 2018 815.5L2454 815.5C2462.56 815.5 2469.5 822.44 2469.5 831L2469.5 893C2469.5 901.56 2462.56 908.5 2454 908.5L2018 908.5C2009.44 908.5 2002.5 901.56 2002.5 893Z" stroke="#000000" stroke-width="9.16667" stroke-linejoin="round" stroke-miterlimit="10" fill="#8BD7FF" fill-rule="evenodd"/><text font-family="MetaPlusLF,MetaPlusLF_MSFontService,sans-serif" font-weight="400" font-size="50" transform="matrix(1 0 0 1 2094.34 880)">Component 2</text><text font-family="MetaPlusLF,MetaPlusLF_MSFontService,sans-serif" font-weight="400" font-size="73" transform="matrix(1 0 0 1 605.659 525)">SBOM 1</text><text font-family="MetaPlusLF,MetaPlusLF_MSFontService,sans-serif" font-weight="400" font-size="73" transform="matrix(1 0 0 1 1337.95 529)">SBOM 2</text><text font-family="MetaPlusLF,MetaPlusLF_MSFontService,sans-serif" font-weight="400" font-size="73" transform="matrix(1 0 0 1 1823.91 528)">Merge Result: Default</text><text font-family="MetaPlusLF,MetaPlusLF_MSFontService,sans-serif" font-weight="400" font-size="73" transform="matrix(1 0 0 1 2556.2 522)">Merge Result: Hierarchical</text><path d="M2002.5 920.167C2002.5 911.514 2009.51 904.5 2018.17 904.5L2453.83 904.5C2462.49 904.5 2469.5 911.514 2469.5 920.167L2469.5 982.833C2469.5 991.486 2462.49 998.5 2453.83 998.5L2018.17 998.5C2009.51 998.5 2002.5 991.486 2002.5 982.833Z" stroke="#000000" stroke-width="9.16667" stroke-linejoin="round" stroke-miterlimit="10" fill="#C5EBFF" fill-rule="evenodd"/><text font-family="MetaPlusLF,MetaPlusLF_MSFontService,sans-serif" font-weight="400" font-size="50" transform="matrix(1 0 0 1 2046.78 969)">Sub Component</text><text font-family="MetaPlusLF,MetaPlusLF_MSFontService,sans-serif" font-weight="400" font-size="50" transform="matrix(1 0 0 1 2397.41 969)">1</text><path d="M2002.5 1015C2002.5 1006.44 2009.44 999.5 2018 999.5L2454 999.5C2462.56 999.5 2469.5 1006.44 2469.5 1015L2469.5 1077C2469.5 1085.56 2462.56 1092.5 2454 1092.5L2018 1092.5C2009.44 1092.5 2002.5 1085.56 2002.5 1077Z" stroke="#000000" stroke-width="9.16667" stroke-linejoin="round" stroke-miterlimit="10" fill="#C5EBFF" fill-rule="evenodd"/><text font-family="MetaPlusLF,MetaPlusLF_MSFontService,sans-serif" font-weight="400" font-size="50" transform="matrix(1 0 0 1 2046.78 1064)">Sub Component</text><text font-family="MetaPlusLF,MetaPlusLF_MSFontService,sans-serif" font-weight="400" font-size="50" transform="matrix(1 0 0 1 2397.41 1064)">2</text><path d="M2532 706.503C2532 630.562 2593.56 569 2669.5 569L3219.5 569C3295.44 569 3357 630.562 3357 706.503L3357 1263.5C3357 1339.44 3295.44 1401 3219.5 1401L2669.5 1401C2593.56 1401 2532 1339.44 2532 1263.5Z" fill="#B6C0C6" fill-rule="evenodd"/><text font-family="MetaPlusLF,MetaPlusLF_MSFontService,sans-serif" font-weight="400" font-size="50" transform="matrix(1 0 0 1 2605.27 671)">Main</text><text font-family="MetaPlusLF,MetaPlusLF_MSFontService,sans-serif" font-weight="400" font-size="50" transform="matrix(1 0 0 1 2722.15 671)">Component</text><text font-family="MetaPlusLF,MetaPlusLF_MSFontService,sans-serif" font-weight="400" font-size="50" transform="matrix(1 0 0 1 2605.27 732)">Components: {</text><text font-family="MetaPlusLF,MetaPlusLF_MSFontService,sans-serif" font-weight="400" font-size="50" transform="matrix(1 0 0 1 2605.27 1337)">}</text><path d="M2717.5 824.668C2717.5 787.02 2748.02 756.5 2785.67 756.5L3250.33 756.5C3287.98 756.5 3318.5 787.02 3318.5 824.668L3318.5 1097.33C3318.5 1134.98 3287.98 1165.5 3250.33 1165.5L2785.67 1165.5C2748.02 1165.5 2717.5 1134.98 2717.5 1097.33Z" stroke="#000000" stroke-width="9.16667" stroke-linejoin="round" stroke-miterlimit="10" fill="#8BD7FF" fill-rule="evenodd"/><text font-family="MetaPlusLF,MetaPlusLF_MSFontService,sans-serif" font-weight="400" font-size="50" transform="matrix(1 0 0 1 2769.88 798)">Component 1</text><text font-family="MetaPlusLF,MetaPlusLF_MSFontService,sans-serif" font-weight="400" font-size="50" transform="matrix(1 0 0 1 2769.88 859)">Components: {</text><text font-family="MetaPlusLF,MetaPlusLF_MSFontService,sans-serif" font-weight="400" font-size="50" transform="matrix(1 0 0 1 2769.88 1101)">}</text><path d="M2717.5 1190.17C2717.5 1181.51 2724.51 1174.5 2733.17 1174.5L3302.83 1174.5C3311.49 1174.5 3318.5 1181.51 3318.5 1190.17L3318.5 1252.83C3318.5 1261.49 3311.49 1268.5 3302.83 1268.5L2733.17 1268.5C2724.51 1268.5 2717.5 1261.49 2717.5 1252.83Z" stroke="#000000" stroke-width="9.16667" stroke-linejoin="round" stroke-miterlimit="10" fill="#8BD7FF" fill-rule="evenodd"/><text font-family="MetaPlusLF,MetaPlusLF_MSFontService,sans-serif" font-weight="400" font-size="50" transform="matrix(1 0 0 1 2876 1240)">Component 2</text><path d="M2851.5 894.167C2851.5 885.514 2858.51 878.5 2867.17 878.5L3302.83 878.5C3311.49 878.5 3318.5 885.514 3318.5 894.167L3318.5 956.834C3318.5 965.486 3311.49 972.5 3302.83 972.5L2867.17 972.5C2858.51 972.5 2851.5 965.486 2851.5 956.834Z" stroke="#000000" stroke-width="9.16667" stroke-linejoin="round" stroke-miterlimit="10" fill="#C5EBFF" fill-rule="evenodd"/><text font-family="MetaPlusLF,MetaPlusLF_MSFontService,sans-serif" font-weight="400" font-size="50" transform="matrix(1 0 0 1 2895.5 944)">Sub Component</text><text font-family="MetaPlusLF,MetaPlusLF_MSFontService,sans-serif" font-weight="400" font-size="50" transform="matrix(1 0 0 1 3246.12 944)">1</text><path d="M2851.5 989.167C2851.5 980.514 2858.51 973.5 2867.17 973.5L3302.83 973.5C3311.49 973.5 3318.5 980.514 3318.5 989.167L3318.5 1051.83C3318.5 1060.49 3311.49 1067.5 3302.83 1067.5L2867.17 1067.5C2858.51 1067.5 2851.5 1060.49 2851.5 1051.83Z" stroke="#000000" stroke-width="9.16667" stroke-linejoin="round" stroke-miterlimit="10" fill="#C5EBFF" fill-rule="evenodd"/><text font-family="MetaPlusLF,MetaPlusLF_MSFontService,sans-serif" font-weight="400" font-size="50" transform="matrix(1 0 0 1 2895.5 1039)">Sub Component</text><text font-family="MetaPlusLF,MetaPlusLF_MSFontService,sans-serif" font-weight="400" font-size="50" transform="matrix(1 0 0 1 3246.12 1039)">2</text></g></svg>
