<svg width="1762" height="1555" xmlns="http://www.w3.org/2000/svg" xmlns:xlink="http://www.w3.org/1999/xlink" xml:space="preserve" overflow="hidden"><g transform="translate(-130 -441)"><path d="M168 628.835C168 591.923 197.923 562 234.835 562L784.166 562C821.077 562 851 591.923 851 628.835L851 896.165C851 933.077 821.077 963 784.166 963L234.835 963C197.923 963 168 933.077 168 896.165Z" fill="#B6C0C6" fill-rule="evenodd"/><text font-family="MetaPlusLF,MetaPlusLF_MSFontService,sans-serif" font-weight="400" font-size="50" transform="matrix(1 0 0 1 220.425 630)">Main</text><text font-family="MetaPlusLF,MetaPlusLF_MSFontService,sans-serif" font-weight="400" font-size="50" transform="matrix(1 0 0 1 337.3 630)">Component</text><text font-family="MetaPlusLF,MetaPlusLF_MSFontService,sans-serif" font-weight="400" font-size="50" transform="matrix(1 0 0 1 220.425 691)">Components: {</text><text font-family="MetaPlusLF,MetaPlusLF_MSFontService,sans-serif" font-weight="400" font-size="50" transform="matrix(1 0 0 1 220.425 933)">}</text><path d="M353.5 736.167C353.5 727.514 360.514 720.5 369.167 720.5L803.833 720.5C812.486 720.5 819.5 727.514 819.5 736.167L819.5 798.833C819.5 807.486 812.486 814.5 803.833 814.5L369.167 814.5C360.514 814.5 353.5 807.486 353.5 798.833Z" stroke="#000000" stroke-width="9.16667" stroke-linejoin="round" stroke-miterlimit="10" fill="#8BD7FF" fill-rule="evenodd"/><text font-family="MetaPlusLF,MetaPlusLF_MSFontService,sans-serif" font-weight="400" font-size="50" transform="matrix(1 0 0 1 444.81 785)">Component 1</text><path d="M353.5 831C353.5 822.44 360.44 815.5 369 815.5L804 815.5C812.56 815.5 819.5 822.44 819.5 831L819.5 893C819.5 901.56 812.56 908.5 804 908.5L369 908.5C360.44 908.5 353.5 901.56 353.5 893Z" stroke="#000000" stroke-width="9.16667" stroke-linejoin="round" stroke-miterlimit="10" fill="#8BD7FF" fill-rule="evenodd"/><text font-family="MetaPlusLF,MetaPlusLF_MSFontService,sans-serif" font-weight="400" font-size="50" transform="matrix(1 0 0 1 444.81 880)">Component 2</text><path d="M1036 628.834C1036 591.923 1065.92 562 1102.83 562L1651.17 562C1688.08 562 1718 591.923 1718 628.834L1718 896.165C1718 933.077 1688.08 963 1651.17 963L1102.83 963C1065.92 963 1036 933.077 1036 896.165Z" fill="#B6C0C6" fill-rule="evenodd"/><text font-family="MetaPlusLF,MetaPlusLF_MSFontService,sans-serif" font-weight="400" font-size="50" transform="matrix(1 0 0 1 1088.1 630)">Component 1</text><text font-family="MetaPlusLF,MetaPlusLF_MSFontService,sans-serif" font-weight="400" font-size="50" transform="matrix(1 0 0 1 1088.1 691)">Components: {</text><text font-family="MetaPlusLF,MetaPlusLF_MSFontService,sans-serif" font-weight="400" font-size="50" transform="matrix(1 0 0 1 1088.1 933)">}</text><path d="M1220.5 736.167C1220.5 727.514 1227.51 720.5 1236.17 720.5L1671.83 720.5C1680.49 720.5 1687.5 727.514 1687.5 736.167L1687.5 798.833C1687.5 807.486 1680.49 814.5 1671.83 814.5L1236.17 814.5C1227.51 814.5 1220.5 807.486 1220.5 798.833Z" stroke="#000000" stroke-width="9.16667" stroke-linejoin="round" stroke-miterlimit="10" fill="#C5EBFF" fill-rule="evenodd"/><text font-family="MetaPlusLF,MetaPlusLF_MSFontService,sans-serif" font-weight="400" font-size="50" transform="matrix(1 0 0 1 1264.93 785)">Sub Component</text><text font-family="MetaPlusLF,MetaPlusLF_MSFontService,sans-serif" font-weight="400" font-size="50" transform="matrix(1 0 0 1 1615.56 785)">1</text><path d="M1220.5 831C1220.5 822.44 1227.44 815.5 1236 815.5L1672 815.5C1680.56 815.5 1687.5 822.44 1687.5 831L1687.5 893C1687.5 901.56 1680.56 908.5 1672 908.5L1236 908.5C1227.44 908.5 1220.5 901.56 1220.5 893Z" stroke="#000000" stroke-width="9.16667" stroke-linejoin="round" stroke-miterlimit="10" fill="#C5EBFF" fill-rule="evenodd"/><text font-family="MetaPlusLF,MetaPlusLF_MSFontService,sans-serif" font-weight="400" font-size="50" transform="matrix(1 0 0 1 1264.93 880)">Sub Component</text><text font-family="MetaPlusLF,MetaPlusLF_MSFontService,sans-serif" font-weight="400" font-size="50" transform="matrix(1 0 0 1 1615.56 880)">2</text><path d="M168 1276.34C168 1218.16 215.16 1171 273.336 1171L745.665 1171C803.84 1171 851 1218.16 851 1276.34L851 1697.66C851 1755.84 803.84 1803 745.665 1803L273.336 1803C215.16 1803 168 1755.84 168 1697.66Z" fill="#B6C0C6" fill-rule="evenodd"/><text font-family="MetaPlusLF,MetaPlusLF_MSFontService,sans-serif" font-weight="400" font-size="50" transform="matrix(1 0 0 1 231.674 1233)">Main</text><text font-family="MetaPlusLF,MetaPlusLF_MSFontService,sans-serif" font-weight="400" font-size="50" transform="matrix(1 0 0 1 348.549 1233)">Component</text><text font-family="MetaPlusLF,MetaPlusLF_MSFontService,sans-serif" font-weight="400" font-size="50" transform="matrix(1 0 0 1 231.674 1294)">Components: {</text><text font-family="MetaPlusLF,MetaPlusLF_MSFontService,sans-serif" font-weight="400" font-size="50" transform="matrix(1 0 0 1 231.674 1778)">}</text><path d="M353.5 1345.17C353.5 1336.51 360.514 1329.5 369.167 1329.5L803.833 1329.5C812.486 1329.5 819.5 1336.51 819.5 1345.17L819.5 1407.83C819.5 1416.49 812.486 1423.5 803.833 1423.5L369.167 1423.5C360.514 1423.5 353.5 1416.49 353.5 1407.83Z" stroke="#000000" stroke-width="9.16667" stroke-linejoin="round" stroke-miterlimit="10" fill="#8BD7FF" fill-rule="evenodd"/><text font-family="MetaPlusLF,MetaPlusLF_MSFontService,sans-serif" font-weight="400" font-size="50" transform="matrix(1 0 0 1 444.81 1395)">Component 1</text><path d="M353.5 1440.17C353.5 1431.51 360.514 1424.5 369.167 1424.5L803.833 1424.5C812.486 1424.5 819.5 1431.51 819.5 1440.17L819.5 1502.83C819.5 1511.49 812.486 1518.5 803.833 1518.5L369.167 1518.5C360.514 1518.5 353.5 1511.49 353.5 1502.83Z" stroke="#000000" stroke-width="9.16667" stroke-linejoin="round" stroke-miterlimit="10" fill="#8BD7FF" fill-rule="evenodd"/><text font-family="MetaPlusLF,MetaPlusLF_MSFontService,sans-serif" font-weight="400" font-size="50" transform="matrix(1 0 0 1 444.81 1489)">Component 2</text><text font-family="MetaPlusLF,MetaPlusLF_MSFontService,sans-serif" font-weight="400" font-size="73" transform="matrix(1 0 0 1 385.759 543)">SBOM 1</text><text font-family="MetaPlusLF,MetaPlusLF_MSFontService,sans-serif" font-weight="400" font-size="73" transform="matrix(1 0 0 1 1264.81 535)">SBOM 2</text><text font-family="MetaPlusLF,MetaPlusLF_MSFontService,sans-serif" font-weight="400" font-size="73" transform="matrix(1 0 0 1 174.382 1137)">Merge Result: Default</text><text font-family="MetaPlusLF,MetaPlusLF_MSFontService,sans-serif" font-weight="400" font-size="73" transform="matrix(1 0 0 1 1039.97 1130)">Merge Result: Hierarchical</text><path d="M353.5 1529.17C353.5 1520.51 360.514 1513.5 369.167 1513.5L803.833 1513.5C812.486 1513.5 819.5 1520.51 819.5 1529.17L819.5 1591.83C819.5 1600.49 812.486 1607.5 803.833 1607.5L369.167 1607.5C360.514 1607.5 353.5 1600.49 353.5 1591.83Z" stroke="#000000" stroke-width="9.16667" stroke-linejoin="round" stroke-miterlimit="10" fill="#C5EBFF" fill-rule="evenodd"/><text font-family="MetaPlusLF,MetaPlusLF_MSFontService,sans-serif" font-weight="400" font-size="50" transform="matrix(1 0 0 1 397.258 1579)">Sub Component</text><text font-family="MetaPlusLF,MetaPlusLF_MSFontService,sans-serif" font-weight="400" font-size="50" transform="matrix(1 0 0 1 747.883 1579)">1</text><path d="M353.5 1624.17C353.5 1615.51 360.514 1608.5 369.167 1608.5L803.833 1608.5C812.486 1608.5 819.5 1615.51 819.5 1624.17L819.5 1686.83C819.5 1695.49 812.486 1702.5 803.833 1702.5L369.167 1702.5C360.514 1702.5 353.5 1695.49 353.5 1686.83Z" stroke="#000000" stroke-width="9.16667" stroke-linejoin="round" stroke-miterlimit="10" fill="#C5EBFF" fill-rule="evenodd"/><text font-family="MetaPlusLF,MetaPlusLF_MSFontService,sans-serif" font-weight="400" font-size="50" transform="matrix(1 0 0 1 397.258 1673)">Sub Component</text><text font-family="MetaPlusLF,MetaPlusLF_MSFontService,sans-serif" font-weight="400" font-size="50" transform="matrix(1 0 0 1 747.883 1673)">2</text><path d="M1004 1301.67C1004 1225.64 1065.64 1164 1141.67 1164L1692.33 1164C1768.36 1164 1830 1225.64 1830 1301.67L1830 1858.33C1830 1934.36 1768.36 1996 1692.33 1996L1141.67 1996C1065.64 1996 1004 1934.36 1004 1858.33Z" fill="#B6C0C6" fill-rule="evenodd"/><text font-family="MetaPlusLF,MetaPlusLF_MSFontService,sans-serif" font-weight="400" font-size="50" transform="matrix(1 0 0 1 1077.52 1266)">Main</text><text font-family="MetaPlusLF,MetaPlusLF_MSFontService,sans-serif" font-weight="400" font-size="50" transform="matrix(1 0 0 1 1194.39 1266)">Component</text><text font-family="MetaPlusLF,MetaPlusLF_MSFontService,sans-serif" font-weight="400" font-size="50" transform="matrix(1 0 0 1 1077.52 1327)">Components: {</text><text font-family="MetaPlusLF,MetaPlusLF_MSFontService,sans-serif" font-weight="400" font-size="50" transform="matrix(1 0 0 1 1077.52 1932)">}</text><path d="M1189.5 1418.84C1189.5 1381.09 1220.09 1350.5 1257.83 1350.5L1722.17 1350.5C1759.91 1350.5 1790.5 1381.09 1790.5 1418.84L1790.5 1692.16C1790.5 1729.91 1759.91 1760.5 1722.17 1760.5L1257.83 1760.5C1220.09 1760.5 1189.5 1729.91 1189.5 1692.16Z" stroke="#000000" stroke-width="9.16667" stroke-linejoin="round" stroke-miterlimit="10" fill="#8BD7FF" fill-rule="evenodd"/><text font-family="MetaPlusLF,MetaPlusLF_MSFontService,sans-serif" font-weight="400" font-size="50" transform="matrix(1 0 0 1 1242.12 1392)">Component 1</text><text font-family="MetaPlusLF,MetaPlusLF_MSFontService,sans-serif" font-weight="400" font-size="50" transform="matrix(1 0 0 1 1242.12 1453)">Components: {</text><text font-family="MetaPlusLF,MetaPlusLF_MSFontService,sans-serif" font-weight="400" font-size="50" transform="matrix(1 0 0 1 1242.12 1695)">}</text><path d="M1189.5 1785.17C1189.5 1776.51 1196.51 1769.5 1205.17 1769.5L1640.83 1769.5C1649.49 1769.5 1656.5 1776.51 1656.5 1785.17L1656.5 1847.83C1656.5 1856.49 1649.49 1863.5 1640.83 1863.5L1205.17 1863.5C1196.51 1863.5 1189.5 1856.49 1189.5 1847.83Z" stroke="#000000" stroke-width="9.16667" stroke-linejoin="round" stroke-miterlimit="10" fill="#8BD7FF" fill-rule="evenodd"/><text font-family="MetaPlusLF,MetaPlusLF_MSFontService,sans-serif" font-weight="400" font-size="50" transform="matrix(1 0 0 1 1281.19 1834)">Component 2</text><path d="M1323.5 1489.17C1323.5 1480.51 1330.51 1473.5 1339.17 1473.5L1774.83 1473.5C1783.49 1473.5 1790.5 1480.51 1790.5 1489.17L1790.5 1551.83C1790.5 1560.49 1783.49 1567.5 1774.83 1567.5L1339.17 1567.5C1330.51 1567.5 1323.5 1560.49 1323.5 1551.83Z" stroke="#000000" stroke-width="9.16667" stroke-linejoin="round" stroke-miterlimit="10" fill="#C5EBFF" fill-rule="evenodd"/><text font-family="MetaPlusLF,MetaPlusLF_MSFontService,sans-serif" font-weight="400" font-size="50" transform="matrix(1 0 0 1 1367.74 1538)">Sub Component</text><text font-family="MetaPlusLF,MetaPlusLF_MSFontService,sans-serif" font-weight="400" font-size="50" transform="matrix(1 0 0 1 1718.37 1538)">1</text><path d="M1323.5 1584.17C1323.5 1575.51 1330.51 1568.5 1339.17 1568.5L1774.83 1568.5C1783.49 1568.5 1790.5 1575.51 1790.5 1584.17L1790.5 1646.83C1790.5 1655.49 1783.49 1662.5 1774.83 1662.5L1339.17 1662.5C1330.51 1662.5 1323.5 1655.49 1323.5 1646.83Z" stroke="#000000" stroke-width="9.16667" stroke-linejoin="round" stroke-miterlimit="10" fill="#C5EBFF" fill-rule="evenodd"/><text font-family="MetaPlusLF,MetaPlusLF_MSFontService,sans-serif" font-weight="400" font-size="50" transform="matrix(1 0 0 1 1367.74 1634)">Sub Component</text><text font-family="MetaPlusLF,MetaPlusLF_MSFontService,sans-serif" font-weight="400" font-size="50" transform="matrix(1 0 0 1 1718.37 1634)">2</text></g></svg>
