<svg width="2271" height="2015" xmlns="http://www.w3.org/2000/svg" xmlns:xlink="http://www.w3.org/1999/xlink" xml:space="preserve" overflow="hidden"><g transform="translate(-69 -444)"><path d="M632.5 789.667C632.5 781.843 638.843 775.5 646.667 775.5L1099.33 775.5C1107.16 775.5 1113.5 781.843 1113.5 789.667L1113.5 846.333C1113.5 854.157 1107.16 860.5 1099.33 860.5L646.667 860.5C638.843 860.5 632.5 854.157 632.5 846.333Z" stroke="#000000" stroke-width="9.16667" stroke-linejoin="round" stroke-miterlimit="10" fill="#FFFFFF" fill-rule="evenodd"/><text font-family="MetaPlusLF,MetaPlusLF_MSFontService,sans-serif" font-weight="400" font-size="50" transform="matrix(1 0 0 1 731.663 836)">Component 2</text><path d="M73.5001 789.667C73.5001 781.843 79.8428 775.5 87.6671 775.5L540.333 775.5C548.157 775.5 554.5 781.843 554.5 789.667L554.5 846.333C554.5 854.157 548.157 860.5 540.333 860.5L87.6671 860.5C79.8428 860.5 73.5001 854.157 73.5001 846.333Z" stroke="#000000" stroke-width="9.16667" stroke-linejoin="round" stroke-miterlimit="10" fill="#FFFFFF" fill-rule="evenodd"/><text font-family="MetaPlusLF,MetaPlusLF_MSFontService,sans-serif" font-weight="400" font-size="50" transform="matrix(1 0 0 1 172.655 836)">Component 1</text><path d="M1854.5 789.667C1854.5 781.843 1860.84 775.5 1868.67 775.5L2321.33 775.5C2329.16 775.5 2335.5 781.843 2335.5 789.667L2335.5 846.333C2335.5 854.157 2329.16 860.5 2321.33 860.5L1868.67 860.5C1860.84 860.5 1854.5 854.157 1854.5 846.333Z" stroke="#000000" stroke-width="9.16667" stroke-linejoin="round" stroke-miterlimit="10" fill="#FFFFFF" fill-rule="evenodd"/><text font-family="MetaPlusLF,MetaPlusLF_MSFontService,sans-serif" font-weight="400" font-size="50" transform="matrix(1 0 0 1 1952.76 836)">Component 4</text><path d="M1292.5 789.667C1292.5 781.843 1298.84 775.5 1306.67 775.5L1759.33 775.5C1767.16 775.5 1773.5 781.843 1773.5 789.667L1773.5 846.333C1773.5 854.157 1767.16 860.5 1759.33 860.5L1306.67 860.5C1298.84 860.5 1292.5 854.157 1292.5 846.333Z" stroke="#000000" stroke-width="9.16667" stroke-linejoin="round" stroke-miterlimit="10" fill="#FFFFFF" fill-rule="evenodd"/><text font-family="MetaPlusLF,MetaPlusLF_MSFontService,sans-serif" font-weight="400" font-size="50" transform="matrix(1 0 0 1 1391.19 836)">Component </text><text font-family="MetaPlusLF,MetaPlusLF_MSFontService,sans-serif" font-weight="400" font-size="50" transform="matrix(1 0 0 1 1646.71 836)">3</text><path d="M1.00473-1.3945 135.084 95.2094 133.075 97.9984-1.00473 1.3945ZM138.399 82.7687 152.673 110 122.323 105.081Z" transform="matrix(-1 0 0 1 467.173 665.5)"/><path d="M709.455 664.071 854.93 761.334 853.019 764.192 707.545 666.929ZM857.807 748.785 873.025 775.5 842.522 771.646Z"/><path d="M1.00473-1.3945 135.084 95.2094 133.075 97.9984-1.00473 1.3945ZM138.399 82.7687 152.673 110 122.323 105.081Z" transform="matrix(-1 0 0 1 1700.17 665.5)"/><path d="M1928.46 663.071 2073.93 760.334 2072.02 763.192 1926.54 665.929ZM2076.81 747.785 2092.03 774.5 2061.52 770.646Z"/><text font-family="MetaPlusLF,MetaPlusLF_MSFontService,sans-serif" font-weight="400" font-size="73" transform="matrix(1 0 0 1 466.986 545)">SBOM 1</text><text font-family="MetaPlusLF,MetaPlusLF_MSFontService,sans-serif" font-weight="400" font-size="73" transform="matrix(1 0 0 1 1694.05 539)">SBOM 2</text><text font-family="MetaPlusLF,MetaPlusLF_MSFontService,sans-serif" font-weight="400" font-size="73" transform="matrix(1 0 0 1 161.265 1135)">Default Result</text><path d="M938.5 1227.67C938.5 1219.84 944.843 1213.5 952.667 1213.5L1497.33 1213.5C1505.16 1213.5 1511.5 1219.84 1511.5 1227.67L1511.5 1284.33C1511.5 1292.16 1505.16 1298.5 1497.33 1298.5L952.667 1298.5C944.843 1298.5 938.5 1292.16 938.5 1284.33Z" stroke="#000000" stroke-width="9.16667" stroke-linejoin="round" stroke-miterlimit="10" fill="#FFFFFF" fill-rule="evenodd"/><text font-family="MetaPlusLF,MetaPlusLF_MSFontService,sans-serif" font-weight="400" font-size="50" transform="matrix(1 0 0 1 994.622 1274)">Metadata.Component</text><path d="M1257.5 1428.67C1257.5 1420.84 1263.84 1414.5 1271.67 1414.5L1724.33 1414.5C1732.16 1414.5 1738.5 1420.84 1738.5 1428.67L1738.5 1485.33C1738.5 1493.16 1732.16 1499.5 1724.33 1499.5L1271.67 1499.5C1263.84 1499.5 1257.5 1493.16 1257.5 1485.33Z" stroke="#000000" stroke-width="9.16667" stroke-linejoin="round" stroke-miterlimit="10" fill="#FFFFFF" fill-rule="evenodd"/><text font-family="MetaPlusLF,MetaPlusLF_MSFontService,sans-serif" font-weight="400" font-size="50" transform="matrix(1 0 0 1 1356 1475)">Component </text><text font-family="MetaPlusLF,MetaPlusLF_MSFontService,sans-serif" font-weight="400" font-size="50" transform="matrix(1 0 0 1 1611.53 1475)">3</text><path d="M698.5 1428.67C698.5 1420.84 704.843 1414.5 712.667 1414.5L1165.33 1414.5C1173.16 1414.5 1179.5 1420.84 1179.5 1428.67L1179.5 1485.33C1179.5 1493.16 1173.16 1499.5 1165.33 1499.5L712.667 1499.5C704.843 1499.5 698.5 1493.16 698.5 1485.33Z" stroke="#000000" stroke-width="9.16667" stroke-linejoin="round" stroke-miterlimit="10" fill="#FFFFFF" fill-rule="evenodd"/><text font-family="MetaPlusLF,MetaPlusLF_MSFontService,sans-serif" font-weight="400" font-size="50" transform="matrix(1 0 0 1 796.996 1475)">Component </text><text font-family="MetaPlusLF,MetaPlusLF_MSFontService,sans-serif" font-weight="400" font-size="50" transform="matrix(1 0 0 1 1052.52 1475)">2</text><path d="M1.00473-1.3945 135.084 95.2094 133.075 97.9984-1.00473 1.3945ZM138.399 82.7687 152.673 110 122.323 105.081Z" transform="matrix(-1 0 0 1 1091.17 1304.5)"/><path d="M1334.46 1303.07 1479.93 1400.33 1478.02 1403.19 1332.54 1305.93ZM1482.81 1387.79 1498.03 1414.5 1467.52 1410.65Z"/><path d="M1811.5 1428.67C1811.5 1420.84 1817.84 1414.5 1825.67 1414.5L2278.33 1414.5C2286.16 1414.5 2292.5 1420.84 2292.5 1428.67L2292.5 1485.33C2292.5 1493.16 2286.16 1499.5 2278.33 1499.5L1825.67 1499.5C1817.84 1499.5 1811.5 1493.16 1811.5 1485.33Z" stroke="#000000" stroke-width="9.16667" stroke-linejoin="round" stroke-miterlimit="10" fill="#FFFFFF" fill-rule="evenodd"/><text font-family="MetaPlusLF,MetaPlusLF_MSFontService,sans-serif" font-weight="400" font-size="50" transform="matrix(1 0 0 1 1910.14 1475)">C</text><text font-family="MetaPlusLF,MetaPlusLF_MSFontService,sans-serif" font-weight="400" font-size="50" transform="matrix(1 0 0 1 1937.64 1475)">omponent </text><text font-family="MetaPlusLF,MetaPlusLF_MSFontService,sans-serif" font-weight="400" font-size="50" transform="matrix(1 0 0 1 2165.66 1475)">4</text><path d="M152.5 1425.67C152.5 1417.84 158.843 1411.5 166.667 1411.5L618.333 1411.5C626.157 1411.5 632.5 1417.84 632.5 1425.67L632.5 1482.33C632.5 1490.16 626.157 1496.5 618.333 1496.5L166.667 1496.5C158.843 1496.5 152.5 1490.16 152.5 1482.33Z" stroke="#000000" stroke-width="9.16667" stroke-linejoin="round" stroke-miterlimit="10" fill="#FFFFFF" fill-rule="evenodd"/><text font-family="MetaPlusLF,MetaPlusLF_MSFontService,sans-serif" font-weight="400" font-size="50" transform="matrix(1 0 0 1 250.888 1472)">Component 1</text><path d="M0.482516-1.64963 331.396 95.1425 330.431 98.4418-0.482516 1.64963ZM330.375 82.3084 352.909 103.226 322.655 108.702Z" transform="matrix(-1 0 0 1 977.409 1304.5)"/><path d="M1459 1302.86 1789.99 1403.73 1788.99 1407.02 1458 1306.14ZM1789.11 1390.89 1811.41 1412.06 1781.09 1417.19Z"/><text font-family="MetaPlusLF,MetaPlusLF_MSFontService,sans-serif" font-weight="400" font-size="73" transform="matrix(1 0 0 1 163.067 1688)">Hierarchical Result</text><path d="M915.5 1776.67C915.5 1768.84 921.843 1762.5 929.667 1762.5L1459.33 1762.5C1467.16 1762.5 1473.5 1768.84 1473.5 1776.67L1473.5 1833.33C1473.5 1841.16 1467.16 1847.5 1459.33 1847.5L929.667 1847.5C921.843 1847.5 915.5 1841.16 915.5 1833.33Z" stroke="#000000" stroke-width="9.16667" stroke-linejoin="round" stroke-miterlimit="10" fill="#FFFFFF" fill-rule="evenodd"/><text font-family="MetaPlusLF,MetaPlusLF_MSFontService,sans-serif" font-weight="400" font-size="50" transform="matrix(1 0 0 1 964.327 1823)">Metadata.Componen</text><text font-family="MetaPlusLF,MetaPlusLF_MSFontService,sans-serif" font-weight="400" font-size="50" transform="matrix(1 0 0 1 1408.34 1823)">t</text><path d="M1219.5 1974.67C1219.5 1966.84 1225.84 1960.5 1233.67 1960.5L1686.33 1960.5C1694.16 1960.5 1700.5 1966.84 1700.5 1974.67L1700.5 2031.33C1700.5 2039.16 1694.16 2045.5 1686.33 2045.5L1233.67 2045.5C1225.84 2045.5 1219.5 2039.16 1219.5 2031.33Z" stroke="#000000" stroke-width="9.16667" stroke-linejoin="round" stroke-miterlimit="10" fill="#FFFFFF" fill-rule="evenodd"/><text font-family="MetaPlusLF,MetaPlusLF_MSFontService,sans-serif" font-weight="400" font-size="50" transform="matrix(1 0 0 1 1318.17 2021)">Component 2</text><path d="M660.5 1974.67C660.5 1966.84 666.843 1960.5 674.667 1960.5L1127.33 1960.5C1135.16 1960.5 1141.5 1966.84 1141.5 1974.67L1141.5 2031.33C1141.5 2039.16 1135.16 2045.5 1127.33 2045.5L674.667 2045.5C666.843 2045.5 660.5 2039.16 660.5 2031.33Z" stroke="#000000" stroke-width="9.16667" stroke-linejoin="round" stroke-miterlimit="10" fill="#FFFFFF" fill-rule="evenodd"/><text font-family="MetaPlusLF,MetaPlusLF_MSFontService,sans-serif" font-weight="400" font-size="50" transform="matrix(1 0 0 1 759.163 2021)">Component 1</text><path d="M1.00473-1.3945 135.084 95.2094 133.075 97.9984-1.00473 1.3945ZM138.399 82.7687 152.673 110 122.323 105.081Z" transform="matrix(-1 0 0 1 1053.17 1850.5)"/><path d="M1296.46 1849.07 1441.93 1946.33 1440.02 1949.19 1294.54 1851.93ZM1444.81 1933.79 1460.03 1960.5 1429.52 1956.65Z"/><path d="M954.5 2172.67C954.5 2164.84 960.843 2158.5 968.667 2158.5L1421.33 2158.5C1429.16 2158.5 1435.5 2164.84 1435.5 2172.67L1435.5 2229.33C1435.5 2237.16 1429.16 2243.5 1421.33 2243.5L968.667 2243.5C960.843 2243.5 954.5 2237.16 954.5 2229.33Z" stroke="#000000" stroke-width="9.16667" stroke-linejoin="round" stroke-miterlimit="10" fill="#FFFFFF" fill-rule="evenodd"/><text font-family="MetaPlusLF,MetaPlusLF_MSFontService,sans-serif" font-weight="400" font-size="50" transform="matrix(1 0 0 1 1052.84 2219)">Component 4</text><path d="M392.5 2172.67C392.5 2164.84 398.843 2158.5 406.667 2158.5L859.333 2158.5C867.157 2158.5 873.5 2164.84 873.5 2172.67L873.5 2229.33C873.5 2237.16 867.157 2243.5 859.333 2243.5L406.667 2243.5C398.843 2243.5 392.5 2237.16 392.5 2229.33Z" stroke="#000000" stroke-width="9.16667" stroke-linejoin="round" stroke-miterlimit="10" fill="#FFFFFF" fill-rule="evenodd"/><text font-family="MetaPlusLF,MetaPlusLF_MSFontService,sans-serif" font-weight="400" font-size="50" transform="matrix(1 0 0 1 491.276 2219)">Component 3</text><path d="M1.00473-1.3945 135.084 95.2094 133.075 97.9984-1.00473 1.3945ZM138.399 82.7687 152.673 110 122.323 105.081Z" transform="matrix(-1 0 0 1 800.173 2048.5)"/><path d="M1028.46 2047.07 1173.93 2144.33 1172.02 2147.19 1026.54 2049.93ZM1176.81 2131.79 1192.03 2158.5 1161.52 2154.65Z"/><path d="M1661.5 989.834C1661.5 981.917 1667.92 975.5 1675.83 975.5L2128.17 975.5C2136.08 975.5 2142.5 981.917 2142.5 989.834L2142.5 1047.17C2142.5 1055.08 2136.08 1061.5 2128.17 1061.5L1675.83 1061.5C1667.92 1061.5 1661.5 1055.08 1661.5 1047.17Z" stroke="#000000" stroke-width="9.16667" stroke-linejoin="round" stroke-miterlimit="10" fill="#FFFFFF" fill-rule="evenodd"/><text font-family="MetaPlusLF,MetaPlusLF_MSFontService,sans-serif" font-weight="400" font-size="50" transform="matrix(1 0 0 1 1760.22 1037)">Component </text><text font-family="MetaPlusLF,MetaPlusLF_MSFontService,sans-serif" font-weight="400" font-size="50" transform="matrix(1 0 0 1 2015.74 1037)">5</text><path d="M1.00473-1.3945 135.084 95.2094 133.075 97.9984-1.00473 1.3945ZM138.399 82.7687 152.673 110 122.323 105.081Z" transform="matrix(-1 0 0 1 2069.17 865.5)"/><path d="M1661.5 1628.83C1661.5 1620.92 1667.92 1614.5 1675.83 1614.5L2128.17 1614.5C2136.08 1614.5 2142.5 1620.92 2142.5 1628.83L2142.5 1686.17C2142.5 1694.08 2136.08 1700.5 2128.17 1700.5L1675.83 1700.5C1667.92 1700.5 1661.5 1694.08 1661.5 1686.17Z" stroke="#000000" stroke-width="9.16667" stroke-linejoin="round" stroke-miterlimit="10" fill="#FFFFFF" fill-rule="evenodd"/><text font-family="MetaPlusLF,MetaPlusLF_MSFontService,sans-serif" font-weight="400" font-size="50" transform="matrix(1 0 0 1 1760.22 1676)">Component </text><text font-family="MetaPlusLF,MetaPlusLF_MSFontService,sans-serif" font-weight="400" font-size="50" transform="matrix(1 0 0 1 2015.74 1676)">5</text><path d="M1.00473-1.3945 135.084 95.2094 133.075 97.9984-1.00473 1.3945ZM138.399 82.7687 152.673 110 122.323 105.081Z" transform="matrix(-1 0 0 1 2069.17 1504.5)"/><path d="M787.5 2369.83C787.5 2361.92 793.918 2355.5 801.834 2355.5L1253.17 2355.5C1261.08 2355.5 1267.5 2361.92 1267.5 2369.83L1267.5 2427.17C1267.5 2435.08 1261.08 2441.5 1253.17 2441.5L801.834 2441.5C793.918 2441.5 787.5 2435.08 787.5 2427.17Z" stroke="#000000" stroke-width="9.16667" stroke-linejoin="round" stroke-miterlimit="10" fill="#FFFFFF" fill-rule="evenodd"/><text font-family="MetaPlusLF,MetaPlusLF_MSFontService,sans-serif" font-weight="400" font-size="50" transform="matrix(1 0 0 1 885.759 2417)">Component </text><text font-family="MetaPlusLF,MetaPlusLF_MSFontService,sans-serif" font-weight="400" font-size="50" transform="matrix(1 0 0 1 1141.28 2417)">5</text><path d="M1.00473-1.3945 135.084 95.2094 133.075 97.9984-1.00473 1.3945ZM138.399 82.7687 152.673 110 122.323 105.081Z" transform="matrix(-1 0 0 1 1195.17 2245.5)"/><path d="M1511.5 582.334C1511.5 567.514 1523.51 555.5 1538.33 555.5L2107.67 555.5C2122.49 555.5 2134.5 567.514 2134.5 582.334L2134.5 689.666C2134.5 704.486 2122.49 716.5 2107.67 716.5L1538.33 716.5C1523.51 716.5 1511.5 704.486 1511.5 689.666Z" stroke="#000000" stroke-width="9.16667" stroke-linejoin="round" stroke-miterlimit="10" fill="#FFFFFF" fill-rule="evenodd"/><text font-family="MetaPlusLF,MetaPlusLF_MSFontService,sans-serif" font-weight="400" font-size="50" transform="matrix(1 0 0 1 1681.12 624)">Component 1</text><text font-family="MetaPlusLF,MetaPlusLF_MSFontService,sans-serif" font-weight="400" font-size="50" transform="matrix(1 0 0 1 1576.28 685)">(</text><text font-family="MetaPlusLF,MetaPlusLF_MSFontService,sans-serif" font-weight="400" font-size="50" transform="matrix(1 0 0 1 1592.32 685)">Metadata.Component</text><text font-family="MetaPlusLF,MetaPlusLF_MSFontService,sans-serif" font-weight="400" font-size="50" transform="matrix(1 0 0 1 2052.37 685)">)</text><path d="M270.5 582.334C270.5 567.514 282.514 555.5 297.334 555.5L866.666 555.5C881.486 555.5 893.5 567.514 893.5 582.334L893.5 689.666C893.5 704.486 881.486 716.5 866.666 716.5L297.334 716.5C282.514 716.5 270.5 704.486 270.5 689.666Z" stroke="#000000" stroke-width="9.16667" stroke-linejoin="round" stroke-miterlimit="10" fill="#FFFFFF" fill-rule="evenodd"/><text font-family="MetaPlusLF,MetaPlusLF_MSFontService,sans-serif" font-weight="400" font-size="50" transform="matrix(1 0 0 1 440.302 624)">Component </text><text font-family="MetaPlusLF,MetaPlusLF_MSFontService,sans-serif" font-weight="400" font-size="50" transform="matrix(1 0 0 1 695.822 624)">0</text><text font-family="MetaPlusLF,MetaPlusLF_MSFontService,sans-serif" font-weight="400" font-size="50" transform="matrix(1 0 0 1 335.458 685)">(</text><text font-family="MetaPlusLF,MetaPlusLF_MSFontService,sans-serif" font-weight="400" font-size="50" transform="matrix(1 0 0 1 351.499 685)">Metadata.Component</text><text font-family="MetaPlusLF,MetaPlusLF_MSFontService,sans-serif" font-weight="400" font-size="50" transform="matrix(1 0 0 1 811.552 685)">)</text><path d="M908.5 1168.33C908.5 1153.51 920.514 1141.5 935.334 1141.5L1503.67 1141.5C1518.49 1141.5 1530.5 1153.51 1530.5 1168.33L1530.5 1275.67C1530.5 1290.49 1518.49 1302.5 1503.67 1302.5L935.334 1302.5C920.514 1302.5 908.5 1290.49 908.5 1275.67Z" stroke="#000000" stroke-width="9.16667" stroke-linejoin="round" stroke-miterlimit="10" fill="#FFFFFF" fill-rule="evenodd"/><text font-family="MetaPlusLF,MetaPlusLF_MSFontService,sans-serif" font-weight="400" font-size="50" transform="matrix(1 0 0 1 1077.78 1210)">Component </text><text font-family="MetaPlusLF,MetaPlusLF_MSFontService,sans-serif" font-weight="400" font-size="50" transform="matrix(1 0 0 1 1333.3 1210)">0</text><text font-family="MetaPlusLF,MetaPlusLF_MSFontService,sans-serif" font-weight="400" font-size="50" transform="matrix(1 0 0 1 972.94 1271)">(</text><text font-family="MetaPlusLF,MetaPlusLF_MSFontService,sans-serif" font-weight="400" font-size="50" transform="matrix(1 0 0 1 988.982 1271)">Metadata.Component</text><text font-family="MetaPlusLF,MetaPlusLF_MSFontService,sans-serif" font-weight="400" font-size="50" transform="matrix(1 0 0 1 1449.03 1271)">)</text><path d="M883.5 1713.33C883.5 1698.51 895.514 1686.5 910.334 1686.5L1479.67 1686.5C1494.49 1686.5 1506.5 1698.51 1506.5 1713.33L1506.5 1820.67C1506.5 1835.49 1494.49 1847.5 1479.67 1847.5L910.334 1847.5C895.514 1847.5 883.5 1835.49 883.5 1820.67Z" stroke="#000000" stroke-width="9.16667" stroke-linejoin="round" stroke-miterlimit="10" fill="#FFFFFF" fill-rule="evenodd"/><text font-family="MetaPlusLF,MetaPlusLF_MSFontService,sans-serif" font-weight="400" font-size="50" transform="matrix(1 0 0 1 1053.13 1755)">Component </text><text font-family="MetaPlusLF,MetaPlusLF_MSFontService,sans-serif" font-weight="400" font-size="50" transform="matrix(1 0 0 1 1308.65 1755)">0</text><text font-family="MetaPlusLF,MetaPlusLF_MSFontService,sans-serif" font-weight="400" font-size="50" transform="matrix(1 0 0 1 948.285 1816)">(</text><text font-family="MetaPlusLF,MetaPlusLF_MSFontService,sans-serif" font-weight="400" font-size="50" transform="matrix(1 0 0 1 964.326 1816)">Metadata.Component</text><text font-family="MetaPlusLF,MetaPlusLF_MSFontService,sans-serif" font-weight="400" font-size="50" transform="matrix(1 0 0 1 1424.38 1816)">)</text></g></svg>
