<svg width="2271" height="1817" xmlns="http://www.w3.org/2000/svg" xmlns:xlink="http://www.w3.org/1999/xlink" xml:space="preserve" overflow="hidden"><g transform="translate(-69 -444)"><path d="M353.5 593.834C353.5 585.917 359.917 579.5 367.834 579.5L820.166 579.5C828.083 579.5 834.5 585.917 834.5 593.834L834.5 651.166C834.5 659.083 828.083 665.5 820.166 665.5L367.834 665.5C359.917 665.5 353.5 659.083 353.5 651.166Z" stroke="#000000" stroke-width="9.16667" stroke-linejoin="round" stroke-miterlimit="10" fill="#FFFFFF" fill-rule="evenodd"/><text font-family="MetaPlusLF,MetaPlusLF_MSFontService,sans-serif" font-weight="400" font-size="50" transform="matrix(1 0 0 1 412.677 641)">Main Component</text><path d="M632.5 789.667C632.5 781.843 638.843 775.5 646.667 775.5L1099.33 775.5C1107.16 775.5 1113.5 781.843 1113.5 789.667L1113.5 846.333C1113.5 854.157 1107.16 860.5 1099.33 860.5L646.667 860.5C638.843 860.5 632.5 854.157 632.5 846.333Z" stroke="#000000" stroke-width="9.16667" stroke-linejoin="round" stroke-miterlimit="10" fill="#FFFFFF" fill-rule="evenodd"/><text font-family="MetaPlusLF,MetaPlusLF_MSFontService,sans-serif" font-weight="400" font-size="50" transform="matrix(1 0 0 1 731.663 836)">Component 2</text><path d="M73.5001 789.667C73.5001 781.843 79.8428 775.5 87.6671 775.5L540.333 775.5C548.157 775.5 554.5 781.843 554.5 789.667L554.5 846.333C554.5 854.157 548.157 860.5 540.333 860.5L87.6671 860.5C79.8428 860.5 73.5001 854.157 73.5001 846.333Z" stroke="#000000" stroke-width="9.16667" stroke-linejoin="round" stroke-miterlimit="10" fill="#FFFFFF" fill-rule="evenodd"/><text font-family="MetaPlusLF,MetaPlusLF_MSFontService,sans-serif" font-weight="400" font-size="50" transform="matrix(1 0 0 1 172.655 836)">Component 1</text><path d="M1557.5 593.834C1557.5 585.917 1563.92 579.5 1571.83 579.5L2024.17 579.5C2032.08 579.5 2038.5 585.917 2038.5 593.834L2038.5 651.166C2038.5 659.083 2032.08 665.5 2024.17 665.5L1571.83 665.5C1563.92 665.5 1557.5 659.083 1557.5 651.166Z" stroke="#000000" stroke-width="9.16667" stroke-linejoin="round" stroke-miterlimit="10" fill="#FFFFFF" fill-rule="evenodd"/><text font-family="MetaPlusLF,MetaPlusLF_MSFontService,sans-serif" font-weight="400" font-size="50" transform="matrix(1 0 0 1 1656.23 641)">Component 1</text><path d="M1854.5 789.667C1854.5 781.843 1860.84 775.5 1868.67 775.5L2321.33 775.5C2329.16 775.5 2335.5 781.843 2335.5 789.667L2335.5 846.333C2335.5 854.157 2329.16 860.5 2321.33 860.5L1868.67 860.5C1860.84 860.5 1854.5 854.157 1854.5 846.333Z" stroke="#000000" stroke-width="9.16667" stroke-linejoin="round" stroke-miterlimit="10" fill="#FFFFFF" fill-rule="evenodd"/><text font-family="MetaPlusLF,MetaPlusLF_MSFontService,sans-serif" font-weight="400" font-size="50" transform="matrix(1 0 0 1 1952.76 836)">Component </text><text font-family="MetaPlusLF,MetaPlusLF_MSFontService,sans-serif" font-weight="400" font-size="50" transform="matrix(1 0 0 1 2208.28 836)">4</text><path d="M1292.5 789.667C1292.5 781.843 1298.84 775.5 1306.67 775.5L1759.33 775.5C1767.16 775.5 1773.5 781.843 1773.5 789.667L1773.5 846.333C1773.5 854.157 1767.16 860.5 1759.33 860.5L1306.67 860.5C1298.84 860.5 1292.5 854.157 1292.5 846.333Z" stroke="#000000" stroke-width="9.16667" stroke-linejoin="round" stroke-miterlimit="10" fill="#FFFFFF" fill-rule="evenodd"/><text font-family="MetaPlusLF,MetaPlusLF_MSFontService,sans-serif" font-weight="400" font-size="50" transform="matrix(1 0 0 1 1391.19 836)">Component </text><text font-family="MetaPlusLF,MetaPlusLF_MSFontService,sans-serif" font-weight="400" font-size="50" transform="matrix(1 0 0 1 1646.71 836)">3</text><path d="M1.00473-1.3945 135.084 95.2094 133.075 97.9984-1.00473 1.3945ZM138.399 82.7687 152.673 110 122.323 105.081Z" transform="matrix(-1 0 0 1 467.173 665.5)"/><path d="M709.455 664.071 854.93 761.334 853.019 764.192 707.545 666.929ZM857.807 748.785 873.025 775.5 842.522 771.646Z"/><path d="M1.00473-1.3945 135.084 95.2094 133.075 97.9984-1.00473 1.3945ZM138.399 82.7687 152.673 110 122.323 105.081Z" transform="matrix(-1 0 0 1 1700.17 665.5)"/><path d="M1928.46 663.071 2073.93 760.334 2072.02 763.192 1926.54 665.929ZM2076.81 747.785 2092.03 774.5 2061.52 770.646Z"/><text font-family="MetaPlusLF,MetaPlusLF_MSFontService,sans-serif" font-weight="400" font-size="73" transform="matrix(1 0 0 1 466.986 545)">SBOM 1</text><text font-family="MetaPlusLF,MetaPlusLF_MSFontService,sans-serif" font-weight="400" font-size="73" transform="matrix(1 0 0 1 1694.05 539)">SBOM 2</text><text font-family="MetaPlusLF,MetaPlusLF_MSFontService,sans-serif" font-weight="400" font-size="73" transform="matrix(1 0 0 1 161.265 1135)">Default Result</text><path d="M977.5 1232.83C977.5 1224.92 983.918 1218.5 991.834 1218.5L1444.17 1218.5C1452.08 1218.5 1458.5 1224.92 1458.5 1232.83L1458.5 1290.17C1458.5 1298.08 1452.08 1304.5 1444.17 1304.5L991.834 1304.5C983.918 1304.5 977.5 1298.08 977.5 1290.17Z" stroke="#000000" stroke-width="9.16667" stroke-linejoin="round" stroke-miterlimit="10" fill="#FFFFFF" fill-rule="evenodd"/><text font-family="MetaPlusLF,MetaPlusLF_MSFontService,sans-serif" font-weight="400" font-size="50" transform="matrix(1 0 0 1 1037.02 1280)">Main Component</text><path d="M1257.5 1428.67C1257.5 1420.84 1263.84 1414.5 1271.67 1414.5L1724.33 1414.5C1732.16 1414.5 1738.5 1420.84 1738.5 1428.67L1738.5 1485.33C1738.5 1493.16 1732.16 1499.5 1724.33 1499.5L1271.67 1499.5C1263.84 1499.5 1257.5 1493.16 1257.5 1485.33Z" stroke="#000000" stroke-width="9.16667" stroke-linejoin="round" stroke-miterlimit="10" fill="#FFFFFF" fill-rule="evenodd"/><text font-family="MetaPlusLF,MetaPlusLF_MSFontService,sans-serif" font-weight="400" font-size="50" transform="matrix(1 0 0 1 1356 1475)">Component 2</text><path d="M698.5 1428.67C698.5 1420.84 704.843 1414.5 712.667 1414.5L1165.33 1414.5C1173.16 1414.5 1179.5 1420.84 1179.5 1428.67L1179.5 1485.33C1179.5 1493.16 1173.16 1499.5 1165.33 1499.5L712.667 1499.5C704.843 1499.5 698.5 1493.16 698.5 1485.33Z" stroke="#000000" stroke-width="9.16667" stroke-linejoin="round" stroke-miterlimit="10" fill="#FFFFFF" fill-rule="evenodd"/><text font-family="MetaPlusLF,MetaPlusLF_MSFontService,sans-serif" font-weight="400" font-size="50" transform="matrix(1 0 0 1 796.996 1475)">Component 1</text><path d="M1.00473-1.3945 135.084 95.2094 133.075 97.9984-1.00473 1.3945ZM138.399 82.7687 152.673 110 122.323 105.081Z" transform="matrix(-1 0 0 1 1091.17 1304.5)"/><path d="M1334.46 1303.07 1479.93 1400.33 1478.02 1403.19 1332.54 1305.93ZM1482.81 1387.79 1498.03 1414.5 1467.52 1410.65Z"/><path d="M1811.5 1428.67C1811.5 1420.84 1817.84 1414.5 1825.67 1414.5L2278.33 1414.5C2286.16 1414.5 2292.5 1420.84 2292.5 1428.67L2292.5 1485.33C2292.5 1493.16 2286.16 1499.5 2278.33 1499.5L1825.67 1499.5C1817.84 1499.5 1811.5 1493.16 1811.5 1485.33Z" stroke="#000000" stroke-width="9.16667" stroke-linejoin="round" stroke-miterlimit="10" fill="#FFFFFF" fill-rule="evenodd"/><text font-family="MetaPlusLF,MetaPlusLF_MSFontService,sans-serif" font-weight="400" font-size="50" transform="matrix(1 0 0 1 1910.14 1475)">Component 4</text><path d="M152.5 1425.67C152.5 1417.84 158.843 1411.5 166.667 1411.5L618.333 1411.5C626.157 1411.5 632.5 1417.84 632.5 1425.67L632.5 1482.33C632.5 1490.16 626.157 1496.5 618.333 1496.5L166.667 1496.5C158.843 1496.5 152.5 1490.16 152.5 1482.33Z" stroke="#000000" stroke-width="9.16667" stroke-linejoin="round" stroke-miterlimit="10" fill="#FFFFFF" fill-rule="evenodd"/><text font-family="MetaPlusLF,MetaPlusLF_MSFontService,sans-serif" font-weight="400" font-size="50" transform="matrix(1 0 0 1 250.888 1472)">Component 3</text><path d="M0.482516-1.64963 331.396 95.1425 330.431 98.4418-0.482516 1.64963ZM330.375 82.3084 352.909 103.226 322.655 108.702Z" transform="matrix(-1 0 0 1 977.409 1304.5)"/><path d="M1459 1302.86 1789.99 1403.73 1788.99 1407.02 1458 1306.14ZM1789.11 1390.89 1811.41 1412.06 1781.09 1417.19Z"/><text font-family="MetaPlusLF,MetaPlusLF_MSFontService,sans-serif" font-weight="400" font-size="73" transform="matrix(1 0 0 1 163.067 1688)">Hierarchical Result</text><path d="M939.5 1778.83C939.5 1770.92 945.917 1764.5 953.834 1764.5L1406.17 1764.5C1414.08 1764.5 1420.5 1770.92 1420.5 1778.83L1420.5 1836.17C1420.5 1844.08 1414.08 1850.5 1406.17 1850.5L953.834 1850.5C945.917 1850.5 939.5 1844.08 939.5 1836.17Z" stroke="#000000" stroke-width="9.16667" stroke-linejoin="round" stroke-miterlimit="10" fill="#FFFFFF" fill-rule="evenodd"/><text font-family="MetaPlusLF,MetaPlusLF_MSFontService,sans-serif" font-weight="400" font-size="50" transform="matrix(1 0 0 1 999.186 1826)">Main Component</text><path d="M1219.5 1974.67C1219.5 1966.84 1225.84 1960.5 1233.67 1960.5L1686.33 1960.5C1694.16 1960.5 1700.5 1966.84 1700.5 1974.67L1700.5 2031.33C1700.5 2039.16 1694.16 2045.5 1686.33 2045.5L1233.67 2045.5C1225.84 2045.5 1219.5 2039.16 1219.5 2031.33Z" stroke="#000000" stroke-width="9.16667" stroke-linejoin="round" stroke-miterlimit="10" fill="#FFFFFF" fill-rule="evenodd"/><text font-family="MetaPlusLF,MetaPlusLF_MSFontService,sans-serif" font-weight="400" font-size="50" transform="matrix(1 0 0 1 1318.17 2021)">Component 2</text><path d="M660.5 1974.67C660.5 1966.84 666.843 1960.5 674.667 1960.5L1127.33 1960.5C1135.16 1960.5 1141.5 1966.84 1141.5 1974.67L1141.5 2031.33C1141.5 2039.16 1135.16 2045.5 1127.33 2045.5L674.667 2045.5C666.843 2045.5 660.5 2039.16 660.5 2031.33Z" stroke="#000000" stroke-width="9.16667" stroke-linejoin="round" stroke-miterlimit="10" fill="#FFFFFF" fill-rule="evenodd"/><text font-family="MetaPlusLF,MetaPlusLF_MSFontService,sans-serif" font-weight="400" font-size="50" transform="matrix(1 0 0 1 759.163 2021)">Component 1</text><path d="M1.00473-1.3945 135.084 95.2094 133.075 97.9984-1.00473 1.3945ZM138.399 82.7687 152.673 110 122.323 105.081Z" transform="matrix(-1 0 0 1 1053.17 1850.5)"/><path d="M1296.46 1849.07 1441.93 1946.33 1440.02 1949.19 1294.54 1851.93ZM1444.81 1933.79 1460.03 1960.5 1429.52 1956.65Z"/><path d="M954.5 2172.67C954.5 2164.84 960.843 2158.5 968.667 2158.5L1421.33 2158.5C1429.16 2158.5 1435.5 2164.84 1435.5 2172.67L1435.5 2229.33C1435.5 2237.16 1429.16 2243.5 1421.33 2243.5L968.667 2243.5C960.843 2243.5 954.5 2237.16 954.5 2229.33Z" stroke="#000000" stroke-width="9.16667" stroke-linejoin="round" stroke-miterlimit="10" fill="#FFFFFF" fill-rule="evenodd"/><text font-family="MetaPlusLF,MetaPlusLF_MSFontService,sans-serif" font-weight="400" font-size="50" transform="matrix(1 0 0 1 1041.38 2219)">Components 4</text><path d="M392.5 2172.67C392.5 2164.84 398.843 2158.5 406.667 2158.5L859.333 2158.5C867.157 2158.5 873.5 2164.84 873.5 2172.67L873.5 2229.33C873.5 2237.16 867.157 2243.5 859.333 2243.5L406.667 2243.5C398.843 2243.5 392.5 2237.16 392.5 2229.33Z" stroke="#000000" stroke-width="9.16667" stroke-linejoin="round" stroke-miterlimit="10" fill="#FFFFFF" fill-rule="evenodd"/><text font-family="MetaPlusLF,MetaPlusLF_MSFontService,sans-serif" font-weight="400" font-size="50" transform="matrix(1 0 0 1 491.276 2219)">Component 3</text><path d="M1.00473-1.3945 135.084 95.2094 133.075 97.9984-1.00473 1.3945ZM138.399 82.7687 152.673 110 122.323 105.081Z" transform="matrix(-1 0 0 1 800.173 2048.5)"/><path d="M1028.46 2047.07 1173.93 2144.33 1172.02 2147.19 1026.54 2049.93ZM1176.81 2131.79 1192.03 2158.5 1161.52 2154.65Z"/></g></svg>
